<svg xmlns="http://www.w3.org/2000/svg" viewBox="0 0 64 64">
  <path d="M8 25C14 9 35 6 51 14c5 3 8 7 10 12-15-4-37-4-53-1z" fill="#ff9800"/>
  <path d="M9 25c11-8 34-8 51 1-3 3-7 5-12 5H21c-5 0-9-2-12-6z" fill="#f4511e"/>
  <path d="M18 19c11-5 25-4 34 3-10-2-23-2-35 2z" fill="#fff"/>
  <g stroke="#222" stroke-width="2.4" stroke-linecap="round">
    <path d="M18 28l13 20"/>
    <path d="M28 29l5 19"/>
    <path d="M45 29L34 48"/>
    <path d="M54 28L36 48"/>
  </g>
  <circle cx="34" cy="48" r="4.2" fill="#222"/>
  <path d="M30 52c1-3 7-3 8 0l2 8H28z" fill="#222"/>
  <path d="M29 54l-5 5M39 54l5 5" stroke="#222" stroke-width="4" stroke-linecap="round"/>
</svg>